<svg width="40" height="40" viewBox="0 0 40 40" fill="none" xmlns="http://www.w3.org/2000/svg">
<rect width="40" height="40" rx="20" fill="#EAECEC"/>
<path fill-rule="evenodd" clip-rule="evenodd" d="M27.215 24.1034C27.6894 24.1034 28.0675 24.4884 28.0675 24.9559C28.0675 25.4234 27.6894 25.8016 27.215 25.8016C26.7613 25.8016 26.3762 25.4234 26.3762 24.9559C26.3694 24.4884 26.7544 24.1034 27.215 24.1034ZM24.8844 20.3634H29.5456L28.1844 17.6272H24.8844V20.3634ZM30.0544 21.3809H24.8844V24.1309C25.29 24.1791 25.62 24.5297 25.62 24.9628C25.62 25.4028 25.7919 25.8084 26.0875 26.0972L26.0806 26.1041H26.0875C26.3762 26.3997 26.775 26.5716 27.215 26.5716C27.6481 26.5716 28.04 26.3997 28.3288 26.1247L28.3563 26.0972C28.645 25.8153 28.8237 25.4166 28.8306 24.9834V24.9559C28.8306 24.4884 29.2087 24.1034 29.6763 24.1034H30.3088V21.8759L30.0544 21.3809ZM30.405 25.8016C30.2537 26.3722 29.9513 26.8878 29.5525 27.2934L29.5044 27.3347C28.9062 27.9053 28.1019 28.2559 27.215 28.2559C26.3144 28.2559 25.4894 27.8984 24.8981 27.2934H24.8844C24.4788 26.8878 24.19 26.3722 24.0319 25.8016H24.0181H19.0544C18.9031 26.3791 18.6075 26.8878 18.195 27.2934C17.5969 27.8916 16.7787 28.2559 15.8644 28.2559C14.95 28.2559 14.125 27.8984 13.5269 27.2934C13.1281 26.8878 12.8256 26.3722 12.6744 25.8016H10.8456C10.3781 25.8016 10 25.4234 10 24.9559V24.9422V12.5809C10 12.1203 10.3781 11.7422 10.8456 11.7422H10.8731H24.025C24.4994 11.7422 24.8775 12.1203 24.8775 12.5809V12.6153V15.9428H28.6931C29.0506 15.9428 29.3531 16.1559 29.4837 16.4722L31.8969 21.3122C31.9725 21.4291 31.9862 21.5597 31.9862 21.6903H32V24.9559C32 25.4234 31.6287 25.8016 31.1544 25.8016H31.1337H30.405ZM23.1931 13.4334H11.6913V24.1034H13.3963H13.4169C13.8775 24.1034 14.2625 24.4884 14.2625 24.9559C14.2625 25.3959 14.4413 25.8016 14.73 26.0903C15.0256 26.3791 15.4244 26.5647 15.8713 26.5647C16.3112 26.5647 16.71 26.3791 17.0056 26.0903C17.2875 25.8084 17.4662 25.4097 17.4731 24.9766V24.9491C17.4731 24.4816 17.865 24.0966 18.3188 24.0966H23.1931V16.7816V16.7472V13.4334ZM15.8713 24.1034C16.3319 24.1034 16.71 24.4884 16.71 24.9559C16.71 25.4234 16.3319 25.8016 15.8713 25.8016C15.4037 25.8016 15.0256 25.4234 15.0256 24.9559C15.0256 24.4884 15.4037 24.1034 15.8713 24.1034Z" fill="#3B4040"/>
</svg>