<svg width="96" height="96" viewBox="0 0 96 96" fill="none" xmlns="http://www.w3.org/2000/svg">
    <path d="M0 2C0 0.895429 0.895431 0 2 0H94C95.1046 0 96 0.895431 96 2V94C96 95.1046 95.1046 96 94 96H2C0.895429 96 0 95.1046 0 94V2Z"
          fill="black"/>
    <path d="M90 48C90 71.196 71.196 90 48 90C24.804 90 6 71.196 6 48C6 24.804 24.804 6 48 6C71.196 6 90 24.804 90 48Z"
          fill="white"/>
    <path d="M68 48C68 59.0457 59.0457 68 48 68C36.9543 68 28 59.0457 28 48C28 36.9543 36.9543 28 48 28C59.0457 28 68 36.9543 68 48Z"
          fill="black"/>
    <path d="M20 43H76V51H20V43Z" fill="#FF6600"/>
    <path d="M52 43L52 83L44 83L44 43L52 43Z" fill="#FF6600"/>
    <path d="M50 47.5C50 48.6046 49.1046 49.5 48 49.5C46.8954 49.5 46 48.6046 46 47.5C46 46.3954 46.8954 45.5 48 45.5C49.1046 45.5 50 46.3954 50 47.5Z"
          fill="white"/>
</svg>