<svg width="40" height="40" viewBox="0 0 40 40" fill="none" xmlns="http://www.w3.org/2000/svg">
<rect width="40" height="40" rx="20" fill="#EAECEC"/>
<path d="M20.3867 31.9175C20.1736 32.0275 19.8917 32.0344 19.6442 31.9175C13.2848 28.8512 9.55859 21.9625 9.55859 15.0188C9.55859 14.8744 9.55859 14.675 9.57234 14.4C9.57922 14.18 9.58609 13.9669 9.59297 13.8019C9.61359 13.3825 9.92297 13.025 10.3423 12.9769C11.408 12.8463 12.2398 11.9387 12.2398 10.8662V10.8319C12.2398 10.3713 12.618 10 13.0923 10H26.9042H26.9317C27.3992 10 27.7705 10.3713 27.7705 10.8319C27.7705 11.9319 28.5817 12.8463 29.668 12.9838C30.0667 13.0319 30.3898 13.3619 30.4105 13.7744C30.4242 13.9462 30.4311 14.1594 30.438 14.4069C30.4448 14.6819 30.4517 14.8812 30.4517 15.0256C30.4448 21.9625 26.7255 28.8375 20.3867 31.9175ZM24.9655 16.6275C25.3023 16.2906 25.8386 16.2906 26.1686 16.6275C26.4986 16.9506 26.4986 17.4938 26.1686 17.8238L20.0498 23.9425C19.7267 24.2794 19.1836 24.2794 18.8467 23.9425L15.4986 20.5944C15.1686 20.2712 15.1686 19.7281 15.4986 19.3981C15.8286 19.075 16.3648 19.075 16.7086 19.3981L19.4448 22.1412L24.9655 16.6275ZM20.0086 30.2125C25.5636 27.3387 28.7536 21.1788 28.7536 15.0188L28.7467 14.5031C27.4542 14.0906 26.4711 13.0044 26.1617 11.6844H13.8486C13.5461 12.9975 12.5492 14.0838 11.2567 14.5031V15.0188C11.2567 21.1788 14.4467 27.3387 20.0086 30.2125Z" fill="#3B4040"/>
</svg>
